# xmcd
#
# Track frame offsets:
#	150
#	31327
#	40757
#	57815
#	71067
#	84617
#	95135
#	110647
#	126015
#	139572
#	154637
#	170725
#	187285
#	204290
#	221980
#	235065
#	247917
#	268917
#	283897
#	301422
#
# Disc length: 4267 seconds
#
# Revision: 0
# Processed by: cddbd v1.5.1PL0 Copyright (c) Steve Scherf et al.
# Submitted via: audiograbber 1.83.01
#
DISCID=2f10a914
DTITLE=Various Artist - Classic Soul
DYEAR=1995
DGENRE=Soul
TTITLE0=Papa was a rollin'Stone
TTITLE1=Papa's Got a Brand New Bag
TTITLE2=Ghetto Child
TTITLE3=Love Train
TTITLE4=Nathan Jones
TTITLE5=Stop Her On Sight
TTITLE6=Ms Grace
TTITLE7=Like Sister and Brother
TTITLE8=Family Affair
TTITLE9=Didn't I (Blow Your Mind This
TTITLE10=Homely Girl
TTITLE11=Gonna Make You An Offer You Can't Refuse
TTITLE12=I'm Still Waiting
TTITLE13=I'll Be There
TTITLE14=What Becomes of the Broken Heart
TTITLE15=Walk On By
TTITLE16=Me and Mrs Jones
TTITLE17=I'm Stone In Love
TTITLE18=Drift Away
TTITLE19=Easy
EXTD=
EXTT0=
EXTT1=
EXTT2=
EXTT3=
EXTT4=
EXTT5=
EXTT6=
EXTT7=
EXTT8=
EXTT9=
EXTT10=
EXTT11=
EXTT12=Diana Ross
EXTT13=The Temptations
EXTT14=
EXTT15=
EXTT16=
EXTT17=
EXTT18=
EXTT19=
PLAYORDER=
